<?xml version="1.0" encoding="UTF-8" standalone="no"?>
<!-- Created with Inkscape (http://www.inkscape.org/) -->
<svg
   xmlns:dc="http://purl.org/dc/elements/1.1/"
   xmlns:cc="http://creativecommons.org/ns#"
   xmlns:rdf="http://www.w3.org/1999/02/22-rdf-syntax-ns#"
   xmlns:svg="http://www.w3.org/2000/svg"
   xmlns="http://www.w3.org/2000/svg"
   xmlns:xlink="http://www.w3.org/1999/xlink"
   xmlns:sodipodi="http://sodipodi.sourceforge.net/DTD/sodipodi-0.dtd"
   xmlns:inkscape="http://www.inkscape.org/namespaces/inkscape"
   width="312"
   height="132"
   id="svg2"
   sodipodi:version="0.32"
   inkscape:version="0.46"
   version="1.0"
   sodipodi:docname="logo.svg"
   inkscape:output_extension="org.inkscape.output.svg.inkscape">
  <defs
     id="defs4">
    <linearGradient
       id="linearGradient3161">
      <stop
         style="stop-color:#0f427c;stop-opacity:1;"
         offset="0"
         id="stop3163" />
      <stop
         id="stop3183"
         offset="1"
         style="stop-color:#749a9d;stop-opacity:1;" />
    </linearGradient>
    <inkscape:perspective
       sodipodi:type="inkscape:persp3d"
       inkscape:vp_x="0 : 526.18109 : 1"
       inkscape:vp_y="0 : 1000 : 0"
       inkscape:vp_z="744.09448 : 526.18109 : 1"
       inkscape:persp3d-origin="372.04724 : 350.78739 : 1"
       id="perspective10" />
    <linearGradient
       inkscape:collect="always"
       xlink:href="#linearGradient3161"
       id="linearGradient3167"
       x1="99.796875"
       y1="169.3309"
       x2="187.92188"
       y2="169.3309"
       gradientUnits="userSpaceOnUse" />
    <linearGradient
       inkscape:collect="always"
       xlink:href="#linearGradient3161"
       id="linearGradient3179"
       gradientUnits="userSpaceOnUse"
       x1="99.796875"
       y1="169.3309"
       x2="187.92188"
       y2="169.3309" />
    <filter
       inkscape:collect="always"
       id="filter3207">
      <feGaussianBlur
         inkscape:collect="always"
         stdDeviation="3.0020324"
         id="feGaussianBlur3209" />
    </filter>
    <linearGradient
       inkscape:collect="always"
       xlink:href="#linearGradient3161"
       id="linearGradient3211"
       gradientUnits="userSpaceOnUse"
       x1="99.796875"
       y1="169.3309"
       x2="187.92188"
       y2="169.3309" />
    <linearGradient
       inkscape:collect="always"
       xlink:href="#linearGradient3161"
       id="linearGradient2395"
       gradientUnits="userSpaceOnUse"
       x1="99.796875"
       y1="169.3309"
       x2="187.92188"
       y2="169.3309" />
    <linearGradient
       inkscape:collect="always"
       xlink:href="#linearGradient3161"
       id="linearGradient2398"
       gradientUnits="userSpaceOnUse"
       x1="99.796875"
       y1="169.3309"
       x2="187.92188"
       y2="169.3309"
       gradientTransform="matrix(3.3922261,0,0,3.3800866,-235.73856,-356.82746)" />
    <linearGradient
       inkscape:collect="always"
       xlink:href="#linearGradient3161"
       id="linearGradient2405"
       gradientUnits="userSpaceOnUse"
       gradientTransform="matrix(3.3922261,0,0,3.3800866,-235.73856,-356.82746)"
       x1="99.796875"
       y1="169.3309"
       x2="187.92188"
       y2="169.3309" />
  </defs>
  <sodipodi:namedview
     id="base"
     pagecolor="#ffffff"
     bordercolor="#666666"
     borderopacity="1.0"
     gridtolerance="10000"
     guidetolerance="10"
     objecttolerance="10"
     inkscape:pageopacity="0.0"
     inkscape:pageshadow="2"
     inkscape:zoom="2.8284271"
     inkscape:cx="105.33764"
     inkscape:cy="108.31275"
     inkscape:document-units="px"
     inkscape:current-layer="layer1"
     showgrid="false"
     inkscape:window-width="1280"
     inkscape:window-height="958"
     inkscape:window-x="0"
     inkscape:window-y="0" />
  <metadata
     id="metadata7">
    <rdf:RDF>
      <cc:Work
         rdf:about="">
        <dc:format>image/svg+xml</dc:format>
        <dc:type
           rdf:resource="http://purl.org/dc/dcmitype/StillImage" />
      </cc:Work>
    </rdf:RDF>
  </metadata>
  <g
     inkscape:groupmode="layer"
     id="layer2"
     inkscape:label="Shadow"
     transform="translate(2.546996e-7,8.9310041e-6)" />
  <g
     inkscape:label="Text"
     inkscape:groupmode="layer"
     id="layer1"
     transform="translate(-99.264959,-154.75324)">
    <g
       id="g2401"
       transform="translate(0.999999,1)">
      <path
         id="path3187"
         d="M 182.39129,190.52707 L 182.39129,251.79114 C 182.39122,261.6497 178.85764,269.26369 171.79058,274.63312 C 164.76755,280.0465 154.82942,282.75321 141.9761,282.75324 C 137.29409,282.75321 132.54585,282.37913 127.7314,281.63095 C 122.91688,280.92674 117.9699,279.84846 112.89041,278.39611 L 112.89041,261.6277 L 120.37716,261.6277 C 121.03969,266.24892 122.8948,269.6818 125.94254,271.92642 C 129.03439,274.17097 133.42925,275.29326 139.12714,275.29329 C 146.37094,275.29326 151.4725,273.55481 154.43192,270.07792 C 157.43539,266.645 158.93717,260.54942 158.93723,251.79114 L 158.93723,243.80302 C 156.94952,247.45601 154.25518,250.18472 150.8542,251.98918 C 147.49726,253.74963 143.34531,254.62987 138.39836,254.62987 C 128.41599,254.62987 120.55382,251.32902 114.8118,244.72727 C 109.11391,238.12555 106.26496,229.08119 106.26497,217.59416 C 106.26496,206.06317 109.11391,197.01883 114.8118,190.46103 C 120.55382,183.90339 128.41599,180.62453 138.39836,180.62447 C 143.34531,180.62453 147.49726,181.52678 150.8542,183.33117 C 154.25518,185.09169 156.94952,187.7984 158.93723,191.45129 L 158.93723,182.53895 L 192.39571,182.53895 L 192.39571,190.52707 L 182.39129,190.52707 M 158.93723,214.16125 C 158.93717,205.97515 157.87709,200.0556 155.75702,196.40261 C 153.63681,192.74972 150.25785,190.92322 145.6201,190.92315 C 140.76138,190.92322 137.33825,192.85974 135.35065,196.73267 C 133.40717,200.56174 132.43543,207.51556 132.43547,217.59416 C 132.43543,227.67284 133.42925,234.64866 135.41693,238.52163 C 137.4045,242.39467 140.80555,244.33119 145.6201,244.33116 C 150.25785,244.33119 153.63681,242.50469 155.75702,238.85173 C 157.87709,235.1988 158.93717,229.27926 158.93723,221.09306 L 158.93723,214.16125 M 200.34624,252.71536 L 200.34624,244.72727 L 240.76142,190.26299 L 210.35066,190.26299 L 210.35066,202.27815 L 202.46638,202.27815 L 202.46638,182.53895 L 268.05826,182.53895 L 268.05826,190.39501 L 227.57679,244.85929 L 260.17398,244.85929 L 260.17398,232.18397 L 268.05826,232.18397 L 268.05826,252.71536 L 200.34624,252.71536 M 345.57592,181.74676 L 345.57592,202.67426 L 338.08917,202.67426 C 337.82407,198.93331 336.8082,196.1606 335.04146,194.35607 C 333.27462,192.50763 330.71278,191.58338 327.35597,191.58335 C 322.23221,191.58338 318.19072,193.828 315.23141,198.31709 C 312.27199,202.80632 310.7923,209.03396 310.79234,217.00001 L 310.79234,244.72727 L 323.57944,244.72727 L 323.57944,252.71536 L 277.33386,252.71536 L 277.33386,244.72727 L 287.33828,244.72727 L 287.33828,190.52707 L 276.60508,190.52707 L 276.60508,182.53895 L 310.79234,182.53895 L 310.79234,195.01623 C 313.08915,190.13103 316.11474,186.52208 319.86922,184.18941 C 323.66774,181.81284 328.30555,180.62453 333.78264,180.62447 C 335.15181,180.62453 336.8082,180.73456 338.75171,180.95453 C 340.73928,181.13067 343.01401,181.39472 345.57592,181.74676 M 357.70048,190.52707 L 347.49731,190.52707 L 347.49731,182.53895 L 357.70048,182.53895 L 357.70048,160.75324 L 381.15454,160.75324 L 381.15454,182.53895 L 400.69959,182.53895 L 400.69959,190.52707 L 381.15454,190.52707 L 381.15454,233.50433 C 381.1545,239.62195 381.64037,243.42894 382.61214,244.92534 C 383.58385,246.42174 385.35062,247.16992 387.9125,247.16992 C 390.73931,247.16992 392.83736,246.22367 394.20667,244.33116 C 395.57587,242.43868 396.30466,239.51193 396.39306,235.55087 L 406.26495,235.55087 C 405.86738,242.59271 403.9239,247.54403 400.43459,250.40476 C 396.98928,253.22149 391.02639,254.62987 382.54589,254.62987 C 372.87272,254.62987 366.31351,253.13348 362.86833,250.14068 C 359.42309,247.10391 357.70045,241.55847 357.70048,233.50433 L 357.70048,190.52707"
         style="font-size:40px;font-style:normal;font-weight:normal;fill:#000000;fill-opacity:1;stroke:none;stroke-width:1px;stroke-linecap:butt;stroke-linejoin:miter;stroke-opacity:1;filter:url(#filter3207);font-family:Bitstream Vera Sans" />
      <path
         id="flowRoot2383"
         d="M 178.39129,186.52707 L 178.39129,247.79114 C 178.39122,257.6497 174.85764,265.26369 167.79058,270.63312 C 160.76755,276.0465 150.82942,278.75321 137.9761,278.75324 C 133.29408,278.75321 128.54585,278.37913 123.7314,277.63095 C 118.91688,276.92674 113.9699,275.84846 108.89041,274.39611 L 108.89041,257.6277 L 116.37716,257.6277 C 117.03969,262.24892 118.8948,265.6818 121.94254,267.92642 C 125.03439,270.17097 129.42925,271.29326 135.12714,271.29329 C 142.37094,271.29326 147.4725,269.55481 150.43192,266.07792 C 153.43539,262.645 154.93717,256.54942 154.93723,247.79114 L 154.93723,239.80302 C 152.94952,243.45601 150.25518,246.18472 146.8542,247.98918 C 143.49726,249.74963 139.34531,250.62987 134.39836,250.62987 C 124.41598,250.62987 116.55382,247.32902 110.8118,240.72727 C 105.11391,234.12555 102.26496,225.08118 102.26497,213.59416 C 102.26496,202.06317 105.11391,193.01883 110.8118,186.46103 C 116.55382,179.90339 124.41598,176.62453 134.39836,176.62447 C 139.34531,176.62453 143.49726,177.52678 146.8542,179.33117 C 150.25518,181.09169 152.94952,183.7984 154.93723,187.45129 L 154.93723,178.53895 L 188.39571,178.53895 L 188.39571,186.52707 L 178.39129,186.52707 M 154.93723,210.16125 C 154.93717,201.97515 153.8771,196.0556 151.75702,192.40261 C 149.63681,188.74972 146.25785,186.92322 141.6201,186.92315 C 136.76138,186.92322 133.33825,188.85974 131.35064,192.73267 C 129.40717,196.56174 128.43543,203.51556 128.43547,213.59416 C 128.43543,223.67284 129.42925,230.64866 131.41693,234.52163 C 133.4045,238.39467 136.80555,240.33119 141.6201,240.33116 C 146.25785,240.33119 149.63681,238.50469 151.75702,234.85173 C 153.8771,231.1988 154.93717,225.27926 154.93723,217.09306 L 154.93723,210.16125 M 196.34624,248.71536 L 196.34624,240.72727 L 236.76142,186.26299 L 206.35066,186.26299 L 206.35066,198.27815 L 198.46638,198.27815 L 198.46638,178.53895 L 264.05826,178.53895 L 264.05826,186.39501 L 223.57679,240.85929 L 256.17398,240.85929 L 256.17398,228.18397 L 264.05826,228.18397 L 264.05826,248.71536 L 196.34624,248.71536 M 341.57592,177.74676 L 341.57592,198.67426 L 334.08917,198.67426 C 333.82407,194.93331 332.8082,192.16059 331.04146,190.35607 C 329.27462,188.50763 326.71278,187.58338 323.35597,187.58335 C 318.23221,187.58338 314.19072,189.828 311.23141,194.31709 C 308.27199,198.80632 306.7923,205.03396 306.79234,213.00001 L 306.79234,240.72727 L 319.57944,240.72727 L 319.57944,248.71536 L 273.33386,248.71536 L 273.33386,240.72727 L 283.33828,240.72727 L 283.33828,186.52707 L 272.60508,186.52707 L 272.60508,178.53895 L 306.79234,178.53895 L 306.79234,191.01623 C 309.08915,186.13103 312.11474,182.52207 315.86922,180.18941 C 319.66774,177.81284 324.30555,176.62453 329.78264,176.62447 C 331.15181,176.62453 332.8082,176.73456 334.75171,176.95453 C 336.73928,177.13067 339.01401,177.39472 341.57592,177.74676 M 353.70048,186.52707 L 343.49731,186.52707 L 343.49731,178.53895 L 353.70048,178.53895 L 353.70048,156.75324 L 377.15454,156.75324 L 377.15454,178.53895 L 396.69959,178.53895 L 396.69959,186.52707 L 377.15454,186.52707 L 377.15454,229.50433 C 377.1545,235.62195 377.64037,239.42894 378.61214,240.92534 C 379.58385,242.42174 381.35062,243.16992 383.9125,243.16992 C 386.73931,243.16992 388.83736,242.22367 390.20667,240.33116 C 391.57587,238.43868 392.30466,235.51193 392.39306,231.55087 L 402.26495,231.55087 C 401.86738,238.59271 399.9239,243.54403 396.43459,246.40477 C 392.98928,249.22149 387.02639,250.62987 378.54589,250.62987 C 368.87272,250.62987 362.31351,249.13348 358.86833,246.14068 C 355.42309,243.10391 353.70045,237.55847 353.70048,229.50433 L 353.70048,186.52707"
         style="font-size:40px;font-style:normal;font-weight:normal;fill:url(#linearGradient2405);fill-opacity:1;stroke:none;stroke-width:1px;stroke-linecap:butt;stroke-linejoin:miter;stroke-opacity:1;font-family:Bitstream Vera Sans" />
    </g>
    <path
       transform="matrix(0.4592359,0,0,0.4592359,218.50421,176.2238)"
       style="font-size:40px;font-style:normal;font-weight:normal;fill:#000000;fill-opacity:1;stroke:none;stroke-width:1px;stroke-linecap:butt;stroke-linejoin:miter;stroke-opacity:1;font-family:Bitstream Vera Sans"
       d="M -39.9375,187.36997 C -45.057524,191.47666 -50.084186,195.16999 -55.0175,198.44997 C -56.590846,199.48999 -57.590845,200.19665 -58.0175,200.56997 C -58.444177,200.94332 -58.65751,201.36998 -58.6575,201.84997 C -58.65751,202.27665 -58.470844,202.67665 -58.0975,203.04997 C -57.724178,203.39665 -56.844179,204.04998 -55.4575,205.00997 C -49.884186,208.79664 -44.297525,213.12997 -38.6975,218.00997 L -40.8575,220.16997 C -46.484189,215.31664 -51.95085,211.06331 -57.2575,207.40997 C -59.390843,205.94331 -60.737508,204.90331 -61.2975,204.28997 C -61.857507,203.67665 -62.137507,202.86331 -62.1375,201.84997 C -62.137507,200.78332 -61.844174,199.94332 -61.2575,199.32997 C -60.670842,198.71665 -59.230843,197.64999 -56.9375,196.12997 C -51.95085,192.82333 -46.937522,189.15666 -41.8975,185.12997 L -39.9375,187.36997 M -24.0175,193.32997 L -24.0175,190.64997 L -15.0575,190.64997 L -14.6575,185.28997 L -11.6175,185.40997 L -11.9775,190.64997 L 3.7425,190.64997 L 3.7425,193.32997 L -12.1375,193.32997 C -12.377517,196.95665 -12.51085,199.23665 -12.5375,200.16997 L 1.3425,200.16997 L 1.3425,202.84997 L -12.6575,202.84997 C -12.764183,205.99665 -12.817516,207.92998 -12.8175,208.64997 C -12.817516,211.79664 -12.35085,213.84997 -11.4175,214.80997 C -10.457518,215.76997 -8.3908539,216.24997 -5.2175,216.24997 C 1.02247,216.24997 4.1424669,214.08997 4.1425,209.76997 C 4.1424669,208.94331 3.9824671,207.88998 3.6625,206.60997 L 6.5025,205.92997 C 6.8757975,207.42331 7.062464,208.76998 7.0625,209.96997 C 7.062464,212.95664 6.022465,215.2233 3.9425,216.76997 C 1.8891358,218.28997 -1.1641944,219.04997 -5.2175,219.04997 C -9.3775196,219.04997 -12.19085,218.3433 -13.6575,216.92997 C -15.12418,215.48997 -15.857513,212.72997 -15.8575,208.64997 C -15.857513,207.10331 -15.817513,205.16998 -15.7375,202.84997 L -24.9375,202.84997 L -24.9375,200.16997 L -15.6175,200.16997 C -15.617513,200.06332 -15.56418,199.15665 -15.4575,197.44997 C -15.350847,195.71666 -15.270847,194.34332 -15.2175,193.32997 L -24.0175,193.32997 M 18.9825,186.76997 L 21.9825,186.76997 L 21.9825,197.64997 L 22.0625,197.64997 C 23.395821,194.50332 25.209153,192.03666 27.5025,190.24997 C 29.822481,188.46333 32.302479,187.57 34.9425,187.56997 C 38.00914,187.57 40.395804,188.69 42.1025,190.92997 C 43.809134,193.14332 44.662466,196.28999 44.6625,200.36997 C 44.662466,206.68998 42.889135,211.34331 39.3425,214.32997 C 35.795809,217.28997 30.235814,218.76997 22.6625,218.76997 L 22.5425,215.96997 C 29.235815,215.96997 34.062477,214.7433 37.0225,212.28997 C 39.982471,209.80997 41.46247,205.83665 41.4625,200.36997 C 41.46247,197.11665 40.875804,194.66332 39.7025,193.00997 C 38.555806,191.35666 36.875808,190.52999 34.6625,190.52997 C 31.702479,190.52999 28.915815,192.12999 26.3025,195.32997 C 23.689154,198.52999 22.235822,202.39665 21.9425,206.92997 L 18.9825,206.92997 L 18.9825,186.76997 M 81.433594,187.80981 L 83.875,187.80981 C 80.932282,192.14577 79.050773,196.80723 78.230469,201.79419 C 77.957024,203.4218 77.820306,205.02988 77.820312,206.61841 C 77.820306,211.60539 79.050773,216.54028 81.511719,221.42309 C 82.214833,222.81632 83.002592,224.15746 83.875,225.44653 L 81.433594,225.44653 C 78.777336,222.26944 76.811192,218.61059 75.535156,214.46997 C 74.701819,211.74862 74.285153,209.13143 74.285156,206.61841 C 74.285153,202.75123 75.222652,198.78639 77.097656,194.72387 C 78.282545,192.14577 79.727856,189.84109 81.433594,187.80981 M 94.070312,212.80981 L 94.070312,216.96997 L 89.5,216.96997 L 89.5,212.80981 L 94.070312,212.80981 M 123.28906,222.00903 L 123.28906,224.00122 L 96.882812,224.00122 L 96.882812,222.00903 L 123.28906,222.00903 M 130.71094,212.80981 L 130.71094,216.96997 L 126.14062,216.96997 L 126.14062,212.80981 L 130.71094,212.80981 M 138.58203,225.44653 L 136.17969,225.44653 C 139.10937,221.13663 140.98437,216.48169 141.80469,211.48169 C 142.0651,209.85409 142.1953,208.24602 142.19531,206.65747 C 142.1953,201.6054 140.96484,196.64447 138.50391,191.77466 C 137.8138,190.40749 137.03906,189.08588 136.17969,187.80981 L 138.58203,187.80981 C 141.23827,190.98692 143.21093,194.65228 144.5,198.80591 C 145.33332,201.52727 145.74999,204.14446 145.75,206.65747 C 145.74999,210.51164 144.81249,214.46346 142.9375,218.51294 C 141.7526,221.09106 140.30078,223.40225 138.58203,225.44653 M 203.26188,216.92997 C 206.16851,216.36997 208.44851,215.28997 210.10188,213.68997 C 211.78184,212.08997 212.62184,210.18331 212.62187,207.96997 C 212.62184,204.50331 210.94184,202.11665 207.58187,200.80997 C 205.82185,205.95665 203.26185,210.03664 199.90187,213.04997 C 196.56852,216.0633 193.24853,217.56997 189.94188,217.56997 C 187.88853,217.56997 186.26187,216.95663 185.06187,215.72997 C 183.88854,214.47664 183.30187,212.74331 183.30187,210.52997 C 183.30187,207.78331 184.18187,205.34331 185.94188,203.20997 C 187.72853,201.07665 190.18186,199.48999 193.30187,198.44997 L 193.30187,192.52997 L 184.74187,192.52997 L 184.74187,189.96997 L 193.30187,189.96997 L 193.30187,184.92997 L 196.22188,184.92997 L 196.22188,189.96997 L 214.10188,189.96997 L 214.10188,192.52997 L 196.22188,192.52997 L 196.22188,197.68997 C 198.00852,197.34332 199.78185,197.16999 201.54188,197.16997 C 205.91518,197.16999 209.34185,198.14332 211.82188,200.08997 C 214.30184,202.00998 215.54184,204.63665 215.54188,207.96997 C 215.54184,210.92997 214.51517,213.43664 212.46187,215.48997 C 210.40851,217.5433 207.58185,218.9033 203.98188,219.56997 L 203.26188,216.92997 M 204.90187,200.08997 C 203.86185,199.92998 202.74185,199.84998 201.54188,199.84997 C 199.64852,199.84998 197.87519,200.04998 196.22188,200.44997 L 196.22188,212.60997 C 200.03519,209.83664 202.92852,205.66331 204.90187,200.08997 M 193.30187,214.28997 L 193.30187,201.36997 C 191.08853,202.30332 189.3552,203.55665 188.10188,205.12997 C 186.84853,206.67664 186.22187,208.38331 186.22188,210.24997 C 186.22187,211.74331 186.56853,212.9033 187.26188,213.72997 C 187.9552,214.52997 188.94187,214.92997 190.22188,214.92997 C 191.12853,214.92997 192.1552,214.71664 193.30187,214.28997 M 223.14187,203.32997 L 223.14187,200.24997 L 255.70188,200.24997 L 255.70188,203.32997 L 223.14187,203.32997 M 283.26187,216.92997 C 286.16851,216.36997 288.44851,215.28997 290.10188,213.68997 C 291.78184,212.08997 292.62184,210.18331 292.62187,207.96997 C 292.62184,204.50331 290.94184,202.11665 287.58188,200.80997 C 285.82185,205.95665 283.26185,210.03664 279.90188,213.04997 C 276.56852,216.0633 273.24853,217.56997 269.94187,217.56997 C 267.88853,217.56997 266.26187,216.95663 265.06187,215.72997 C 263.88854,214.47664 263.30187,212.74331 263.30187,210.52997 C 263.30187,207.78331 264.18187,205.34331 265.94187,203.20997 C 267.72853,201.07665 270.18186,199.48999 273.30187,198.44997 L 273.30187,192.52997 L 264.74187,192.52997 L 264.74187,189.96997 L 273.30187,189.96997 L 273.30187,184.92997 L 276.22188,184.92997 L 276.22188,189.96997 L 294.10188,189.96997 L 294.10188,192.52997 L 276.22188,192.52997 L 276.22188,197.68997 C 278.00852,197.34332 279.78185,197.16999 281.54188,197.16997 C 285.91518,197.16999 289.34185,198.14332 291.82187,200.08997 C 294.30184,202.00998 295.54184,204.63665 295.54188,207.96997 C 295.54184,210.92997 294.51517,213.43664 292.46188,215.48997 C 290.40851,217.5433 287.58185,218.9033 283.98188,219.56997 L 283.26187,216.92997 M 284.90188,200.08997 C 283.86185,199.92998 282.74185,199.84998 281.54188,199.84997 C 279.64852,199.84998 277.87519,200.04998 276.22188,200.44997 L 276.22188,212.60997 C 280.03519,209.83664 282.92852,205.66331 284.90188,200.08997 M 273.30187,214.28997 L 273.30187,201.36997 C 271.08853,202.30332 269.3552,203.55665 268.10188,205.12997 C 266.84853,206.67664 266.22187,208.38331 266.22188,210.24997 C 266.22187,211.74331 266.56853,212.9033 267.26187,213.72997 C 267.9552,214.52997 268.94187,214.92997 270.22188,214.92997 C 271.12853,214.92997 272.1552,214.71664 273.30187,214.28997 M 348.21094,202.39966 C 348.00258,202.24342 347.95049,202.04811 348.05469,201.81372 C 348.21091,201.57936 348.4583,201.57936 348.79688,201.81372 C 350.30726,202.56894 351.46611,203.31113 352.27344,204.04028 C 352.8984,204.56113 353.22392,204.99081 353.25,205.32934 C 353.27601,205.95435 353.11976,206.46217 352.78125,206.85278 C 352.41663,207.24341 352.15622,207.43873 352,207.43872 C 351.84372,207.41269 351.64841,207.15227 351.41406,206.65747 C 351.02341,205.77206 350.5807,205.00383 350.08594,204.35278 C 349.48695,203.5455 348.86195,202.89446 348.21094,202.39966 M 338.44531,201.38403 C 338.23696,201.27988 338.14581,201.11061 338.17188,200.87622 C 338.27602,200.6679 338.49738,200.61582 338.83594,200.71997 C 339.98175,201.00644 340.90623,201.31894 341.60938,201.65747 C 342.0781,201.9179 342.36456,202.16529 342.46875,202.39966 C 342.62498,202.94654 342.57289,203.42831 342.3125,203.84497 C 342.05206,204.28769 341.84373,204.52206 341.6875,204.54809 C 341.55727,204.5481 341.33592,204.33977 341.02344,203.92309 C 340.65883,203.40227 340.28123,202.93352 339.89062,202.51684 C 339.42185,202.02207 338.94008,201.64446 338.44531,201.38403 M 329.8125,201.73559 C 329.86457,201.52727 329.98176,201.43613 330.16406,201.46216 C 330.37238,201.48821 330.46353,201.63144 330.4375,201.89184 C 330.35936,203.40227 330.08593,204.70435 329.61719,205.79809 C 329.0703,206.96998 328.47135,207.79029 327.82031,208.25903 C 327.32551,208.57154 326.90885,208.6757 326.57031,208.57153 C 326.23176,208.46737 325.98437,208.28508 325.82812,208.02466 C 325.69791,207.79029 325.68489,207.47779 325.78906,207.08716 C 325.86718,206.74862 326.14062,206.46217 326.60938,206.22778 C 327.26041,205.88925 327.87239,205.36842 328.44531,204.66528 C 328.96614,203.91008 329.42187,202.93352 329.8125,201.73559 M 326.17969,200.09497 C 326.15364,200.58978 326.08853,201.08457 325.98438,201.57934 C 325.67187,202.75123 325.24218,203.62363 324.69531,204.19653 C 324.2526,204.53508 323.86197,204.69133 323.52344,204.66528 C 323.15885,204.61321 322.88541,204.46998 322.70312,204.23559 C 322.54687,204.02727 322.48177,203.72779 322.50781,203.33716 C 322.53385,202.94654 322.7552,202.62102 323.17188,202.36059 C 323.74479,201.94394 324.23958,201.37102 324.65625,200.64184 C 325.02083,199.88665 325.29426,198.92311 325.47656,197.75122 C 325.5026,197.49082 325.60676,197.37363 325.78906,197.39966 C 325.99739,197.39967 326.10156,197.52988 326.10156,197.79028 C 326.1276,198.18092 326.15364,198.54551 326.17969,198.88403 L 330.04688,198.88403 L 330.04688,192.59497 C 330.04686,191.1627 329.95572,189.8476 329.77344,188.64966 C 329.74739,188.33718 329.78645,188.16791 329.89062,188.14184 C 330.02082,188.08979 330.17707,188.18093 330.35938,188.41528 C 330.61978,188.72781 330.99738,189.09239 331.49219,189.50903 L 337.9375,189.50903 C 337.96352,189.45697 337.98956,189.41791 338.01562,189.39184 C 338.38019,188.3502 338.64061,187.38666 338.79688,186.50122 L 327,186.50122 C 326.29687,186.50125 325.5026,186.59239 324.61719,186.77466 C 324.48697,186.80073 324.40885,186.77469 324.38281,186.69653 C 324.04427,186.17573 323.74479,185.70698 323.48438,185.29028 C 323.32812,185.0299 323.41927,184.93875 323.75781,185.01684 C 325.34635,185.17312 326.23176,185.26427 326.41406,185.29028 L 350.51562,185.29028 C 350.82809,185.29031 351.03643,185.25125 351.14062,185.17309 C 351.29684,185.06896 351.46611,184.89969 351.64844,184.66528 L 352.58594,183.29809 C 352.79424,183.06375 352.98955,183.06375 353.17188,183.29809 C 353.92705,183.97521 354.66924,184.67833 355.39844,185.40747 C 355.68486,185.72 355.81507,185.96739 355.78906,186.14966 C 355.73694,186.35802 355.54163,186.47521 355.20312,186.50122 L 340.94531,186.50122 C 340.34633,187.49083 339.64321,188.49343 338.83594,189.50903 L 345.71094,189.50903 C 345.86716,189.48302 345.99737,189.41791 346.10156,189.31372 L 347,188.29809 C 347.15622,188.08979 347.32549,188.06375 347.50781,188.21997 C 348.36716,188.845 349.16143,189.48302 349.89062,190.13403 C 350.07289,190.26427 350.08591,190.38145 349.92969,190.48559 C 349.17445,190.98041 348.78382,191.26687 348.75781,191.34497 C 348.67966,191.50124 348.6406,191.7877 348.64062,192.20434 L 348.64062,198.88403 L 351.64844,198.88403 C 351.88278,198.85801 352.05205,198.7929 352.15625,198.68872 L 353.36719,197.47778 C 353.44528,197.37363 353.5234,197.32155 353.60156,197.32153 C 353.70569,197.34759 353.80986,197.4127 353.91406,197.51684 C 355.0859,198.42832 355.9583,199.19655 356.53125,199.82153 C 356.66142,200.02988 356.55725,200.14707 356.21875,200.17309 C 355.48955,200.25123 354.81246,200.52467 354.1875,200.99341 C 353.71872,201.358 353.04163,201.983 352.15625,202.86841 C 351.94788,203.15488 351.72653,203.24602 351.49219,203.14184 C 351.28382,203.01165 351.2708,202.77727 351.45312,202.43872 C 351.86976,201.52727 352.16924,200.74603 352.35156,200.09497 L 326.17969,200.09497 M 346.76562,196.96997 L 331.92188,196.96997 L 331.92188,198.88403 L 346.76562,198.88403 L 346.76562,196.96997 M 346.76562,193.84497 L 331.92188,193.84497 L 331.92188,195.75903 L 346.76562,195.75903 L 346.76562,193.84497 M 345.59375,190.71997 L 331.92188,190.71997 L 331.92188,192.63403 L 346.76562,192.63403 L 346.76562,190.71997 L 345.59375,190.71997 M 332.82031,201.03247 C 332.79426,200.90228 332.8203,200.79811 332.89844,200.71997 C 332.97655,200.64186 333.1328,200.64186 333.36719,200.71997 C 334.09634,201.08457 334.73436,201.42311 335.28125,201.73559 C 335.51561,201.89186 335.6328,202.00904 335.63281,202.08716 C 335.60675,202.21738 335.50259,202.37363 335.32031,202.55591 C 335.11196,202.73821 334.96873,203.07675 334.89062,203.57153 C 334.89061,203.72779 334.89061,203.89706 334.89062,204.07934 L 334.89062,204.62622 C 334.91665,205.06894 334.94269,205.34237 334.96875,205.44653 C 335.04686,205.57675 335.17707,205.64185 335.35938,205.64184 L 344.1875,205.64184 C 344.34373,205.64185 344.47393,205.56373 344.57812,205.40747 C 344.81247,205.06894 345.09893,204.33977 345.4375,203.21997 C 345.61977,202.46477 345.76299,201.87884 345.86719,201.46216 C 345.94529,201.20175 346.11456,201.08457 346.375,201.11059 C 346.60935,201.16269 346.71351,201.34498 346.6875,201.65747 C 346.4531,203.1679 346.37497,204.20956 346.45312,204.78247 C 346.47914,205.0429 346.60935,205.32935 346.84375,205.64184 C 346.89581,205.69394 346.86976,205.81112 346.76562,205.99341 C 346.66143,206.20175 346.44008,206.4231 346.10156,206.65747 C 345.63279,206.91789 345.2682,207.0481 345.00781,207.04809 L 344.53906,207.04809 L 337.27344,207.04809 C 336.64842,207.77727 336.02342,208.49341 335.39844,209.19653 L 345.00781,209.19653 C 345.50258,209.19654 345.80206,209.18352 345.90625,209.15747 L 346.84375,208.37622 C 347.05206,208.16789 347.27341,208.18091 347.50781,208.41528 C 348.18487,208.96216 348.84893,209.56112 349.5,210.21216 C 349.65622,210.39445 349.69528,210.53768 349.61719,210.64184 C 349.53903,210.77206 349.36976,210.82414 349.10938,210.79809 C 348.7708,210.77206 348.43226,210.83716 348.09375,210.99341 C 347.65101,211.20174 346.86976,211.70956 345.75,212.51684 C 344.42185,213.40226 343.15883,214.20955 341.96094,214.93872 C 343.49737,215.45955 345.2031,215.91528 347.07812,216.30591 C 350.22914,216.98299 352.82028,217.26945 354.85156,217.16528 C 355.13799,217.13924 355.41142,217.1132 355.67188,217.08716 C 355.82809,217.08715 355.91923,217.1783 355.94531,217.36059 C 355.91923,217.54288 355.77601,217.67309 355.51562,217.75122 C 355.07288,217.93351 354.65621,218.19392 354.26562,218.53247 C 353.74476,219.0533 353.40622,219.50903 353.25,219.89966 C 353.19788,220.02986 353.00257,220.0559 352.66406,219.97778 C 347.87237,218.91007 343.90102,217.59497 340.75,216.03247 C 340.56769,215.95434 340.42446,215.87622 340.32031,215.79809 C 338.94008,216.47518 337.5729,217.04809 336.21875,217.51684 C 332.59895,218.7408 328.83593,219.60017 324.92969,220.09497 C 324.46093,220.14705 324.21354,220.01684 324.1875,219.70434 C 324.1875,219.46997 324.39583,219.31372 324.8125,219.23559 C 328.27603,218.63663 331.77863,217.63403 335.32031,216.22778 C 336.388,215.75903 337.44269,215.27726 338.48438,214.78247 C 336.53123,213.58455 334.89061,212.26945 333.5625,210.83716 L 331.92188,212.08716 C 330.12499,213.31112 327.92447,214.48299 325.32031,215.60278 C 324.92968,215.75903 324.68229,215.71997 324.57812,215.48559 C 324.39583,215.14705 324.47395,214.89966 324.8125,214.74341 C 327.18228,213.62362 329.04426,212.55591 330.39844,211.54028 C 332.27342,210.13404 333.80988,208.63664 335.00781,207.04809 L 334.77344,207.04809 C 334.64321,207.0481 334.52603,207.0481 334.42188,207.04809 C 334.1354,207.0481 333.83592,206.89185 333.52344,206.57934 C 333.18488,206.21477 333.01561,205.70696 333.01562,205.05591 L 333.01562,204.07934 C 332.98957,202.69915 332.92447,201.68352 332.82031,201.03247 M 344.69531,210.40747 L 334.38281,210.40747 C 335.81509,211.78768 337.59894,212.9856 339.73438,214.00122 C 339.78644,214.02726 339.81248,214.0533 339.8125,214.07934 C 341.47914,213.1158 343.17185,212.00903 344.89062,210.75903 C 344.96872,210.65487 344.99477,210.56372 344.96875,210.48559 C 344.94268,210.40747 344.85154,210.38143 344.69531,210.40747 M 362.39062,196.65747 C 362.18229,196.89186 362,196.9179 361.84375,196.73559 C 361.6875,196.57936 361.72656,196.37103 361.96094,196.11059 C 362.79427,195.04291 363.61458,193.84499 364.42188,192.51684 C 365.38541,190.95437 366.15364,189.47 366.72656,188.06372 L 365.20312,188.06372 C 364.44791,188.08979 363.6276,188.23302 362.74219,188.49341 C 362.61198,188.51948 362.53385,188.49343 362.50781,188.41528 C 362.16927,187.86843 361.86979,187.38666 361.60938,186.96997 C 361.45312,186.73562 361.54427,186.6575 361.88281,186.73559 C 363.57552,187.02208 364.53906,187.16531 364.77344,187.16528 L 366.92188,187.16528 L 366.92188,186.14966 C 366.89583,185.36844 366.84374,184.65229 366.76562,184.00122 C 366.68749,183.61063 366.68749,183.37625 366.76562,183.29809 C 366.86978,183.19396 367.03905,183.19396 367.27344,183.29809 C 368.28905,183.74083 369.10937,184.13146 369.73438,184.46997 C 369.89061,184.54812 369.96874,184.62625 369.96875,184.70434 C 369.9427,184.83458 369.89061,184.91271 369.8125,184.93872 C 369.34374,185.17312 369.05728,185.36844 368.95312,185.52466 C 368.84895,185.68094 368.79687,185.88927 368.79688,186.14966 L 368.79688,187.16528 L 369.22656,187.16528 C 369.53905,187.13927 369.74739,187.07416 369.85156,186.96997 L 370.75,186.03247 C 370.8802,185.90229 371.02343,185.88927 371.17969,185.99341 C 372.01301,186.43614 372.78124,186.86583 373.48438,187.28247 C 373.71874,187.41271 373.8229,187.56896 373.79688,187.75122 C 373.77082,187.93354 373.60155,188.0377 373.28906,188.06372 L 368.79688,188.06372 L 368.79688,189.82153 C 368.84895,189.8476 368.91405,189.87364 368.99219,189.89966 C 370.24218,190.42051 371.23176,190.96739 371.96094,191.54028 C 372.48176,191.93093 372.7552,192.25645 372.78125,192.51684 C 372.83332,193.06374 372.72915,193.50645 372.46875,193.84497 C 372.18228,194.20957 371.96092,194.40489 371.80469,194.43091 C 371.67447,194.40489 371.49218,194.18353 371.25781,193.76684 C 370.89322,193.06374 370.50259,192.46478 370.08594,191.96997 C 369.64322,191.44916 369.21353,191.01947 368.79688,190.68091 L 368.79688,194.58716 C 368.82291,195.05593 368.84895,195.64186 368.875,196.34497 C 368.90103,196.57936 368.82291,196.74863 368.64062,196.85278 C 367.49478,197.39967 366.86978,197.66009 366.76562,197.63403 C 366.68749,197.55592 366.68749,197.38665 366.76562,197.12622 C 366.84374,196.4752 366.89583,195.62884 366.92188,194.58716 L 366.92188,191.96997 C 367.10416,191.21478 367.28645,190.51166 367.46875,189.86059 C 367.52083,189.73041 367.49478,189.65229 367.39062,189.62622 C 367.23437,189.57416 367.14322,189.6002 367.11719,189.70434 C 366.90885,190.38145 366.67447,191.07156 366.41406,191.77466 C 366.33593,191.85281 366.28385,191.94395 366.25781,192.04809 C 365.11197,193.61062 363.82291,195.14707 362.39062,196.65747 M 385.35938,196.30591 C 385.15102,196.56634 384.9557,196.6054 384.77344,196.42309 C 384.61716,196.26686 384.65622,196.05853 384.89062,195.79809 C 385.59372,194.75645 386.27081,193.61062 386.92188,192.36059 C 387.72914,190.8502 388.36716,189.41791 388.83594,188.06372 L 388.32812,188.06372 C 387.57289,188.08979 386.75258,188.23302 385.86719,188.49341 C 385.73695,188.51948 385.65883,188.49343 385.63281,188.41528 C 385.29424,187.86843 384.99477,187.38666 384.73438,186.96997 C 384.5781,186.73562 384.66925,186.6575 385.00781,186.73559 C 386.70049,187.02208 387.66403,187.16531 387.89844,187.16528 L 389.26562,187.16528 L 389.26562,186.14966 C 389.23955,185.36844 389.18747,184.65229 389.10938,184.00122 C 389.03122,183.61063 389.03122,183.37625 389.10938,183.29809 C 389.21351,183.19396 389.38278,183.19396 389.61719,183.29809 C 390.63278,183.74083 391.45309,184.13146 392.07812,184.46997 C 392.23434,184.54812 392.31247,184.62625 392.3125,184.70434 C 392.28643,184.83458 392.23434,184.91271 392.15625,184.93872 C 391.68747,185.17312 391.40101,185.36844 391.29688,185.52466 C 391.19268,185.68094 391.14059,185.88927 391.14062,186.14966 L 391.14062,187.16528 L 392.66406,187.16528 C 392.97653,187.13927 393.18486,187.07416 393.28906,186.96997 L 394.1875,186.03247 C 394.31767,185.90229 394.4609,185.88927 394.61719,185.99341 C 395.45048,186.43614 396.21871,186.86583 396.92188,187.28247 C 397.15621,187.41271 397.26038,187.56896 397.23438,187.75122 C 397.2083,187.93354 397.03902,188.0377 396.72656,188.06372 L 391.92188,188.06372 C 392.46872,189.49604 393.01559,190.61583 393.5625,191.42309 C 394.0833,192.17833 394.59111,192.76426 395.08594,193.18091 C 395.58069,193.62364 396.19267,193.96218 396.92188,194.19653 C 396.99996,194.22259 397.09111,194.24864 397.19531,194.27466 C 397.32548,194.30072 397.37757,194.40489 397.35156,194.58716 C 397.32548,194.76947 397.18225,194.84759 396.92188,194.82153 C 396.7135,194.82155 396.44007,194.99082 396.10156,195.32934 C 395.86715,195.56374 395.67184,195.79811 395.51562,196.03247 C 395.38538,196.18874 395.22913,196.14968 395.04688,195.91528 C 394.13538,194.92572 393.40622,193.91009 392.85938,192.86841 C 392.33851,191.93093 391.90882,190.90229 391.57031,189.78247 C 391.36195,189.07937 391.25778,188.5325 391.25781,188.14184 C 391.25778,187.95958 391.16663,187.88145 390.98438,187.90747 C 390.80205,187.93354 390.72393,188.0377 390.75,188.21997 C 390.82809,188.79291 390.9583,189.40489 391.14062,190.05591 L 391.14062,194.43091 C 391.16663,194.89968 391.19268,195.48561 391.21875,196.18872 C 391.24476,196.42311 391.16663,196.59238 390.98438,196.69653 C 389.83851,197.24342 389.21351,197.50384 389.10938,197.47778 C 389.03122,197.39967 389.03122,197.2304 389.10938,196.96997 C 389.18747,196.31895 389.23955,195.47259 389.26562,194.43091 L 389.26562,192.12622 C 389.44789,191.37103 389.63018,190.66791 389.8125,190.01684 C 389.86455,189.88666 389.83851,189.80854 389.73438,189.78247 C 389.57809,189.73041 389.48695,189.75645 389.46094,189.86059 C 389.27862,190.38145 389.09632,190.92833 388.91406,191.50122 C 388.83591,191.63145 388.75778,191.77468 388.67969,191.93091 C 387.74216,193.4153 386.63539,194.87364 385.35938,196.30591 M 365.28125,199.46997 C 365.20312,199.96478 365.11197,200.4205 365.00781,200.83716 C 364.64322,202.00904 364.1875,202.84238 363.64062,203.33716 C 363.22395,203.62363 362.84635,203.75383 362.50781,203.72778 C 362.16927,203.64967 361.92187,203.51946 361.76562,203.33716 C 361.63541,203.07675 361.58333,202.77727 361.60938,202.43872 C 361.63541,202.12623 361.84375,201.83977 362.23438,201.57934 C 362.83333,201.18873 363.34114,200.62884 363.75781,199.89966 C 364.20052,199.14446 364.51302,198.20697 364.69531,197.08716 C 364.72135,196.8528 364.82552,196.74863 365.00781,196.77466 C 365.1901,196.77468 365.29426,196.90488 365.32031,197.16528 C 365.32031,197.55592 365.32031,197.92051 365.32031,198.25903 L 392.89844,198.25903 C 393.10674,198.23301 393.26299,198.1679 393.36719,198.06372 L 394.46094,197.00903 C 394.53903,196.87884 394.63017,196.81374 394.73438,196.81372 C 394.81246,196.83978 394.90361,196.90488 395.00781,197.00903 C 396.07548,197.89447 396.88278,198.62363 397.42969,199.19653 C 397.5859,199.37884 397.49475,199.48301 397.15625,199.50903 C 396.45309,199.58717 395.81507,199.83457 395.24219,200.25122 C 394.61715,200.74603 393.78382,201.63144 392.74219,202.90747 C 392.50778,203.1679 392.29945,203.24602 392.11719,203.14184 C 391.93486,203.01165 391.93486,202.79029 392.11719,202.47778 C 392.74215,201.33196 393.22392,200.32936 393.5625,199.46997 L 365.28125,199.46997 M 368.75781,208.49341 C 368.52343,208.64966 368.35416,208.63664 368.25,208.45434 C 368.19791,208.24602 368.26301,208.08977 368.44531,207.98559 C 370.05989,206.86581 371.46613,205.74602 372.66406,204.62622 C 371.49218,203.81894 370.16405,203.05071 368.67969,202.32153 C 368.49739,202.21738 368.4453,202.07415 368.52344,201.89184 C 368.60155,201.70957 368.77082,201.6705 369.03125,201.77466 C 370.64582,202.45175 372.09113,203.14186 373.36719,203.84497 L 373.40625,203.88403 C 374.36978,202.84238 375.24217,201.73561 376.02344,200.56372 C 376.15363,200.38144 376.23175,200.27728 376.25781,200.25122 C 376.33592,200.27728 376.45311,200.34238 376.60938,200.44653 C 377.05207,200.86321 377.44269,201.24082 377.78125,201.57934 C 378.01561,201.89186 378.11977,202.06113 378.09375,202.08716 C 378.06769,202.16529 377.93748,202.20436 377.70312,202.20434 C 377.41665,202.20436 377.10415,202.32154 376.76562,202.55591 C 376.45311,202.73821 375.85415,203.27206 374.96875,204.15747 C 374.78644,204.26165 374.64321,204.39186 374.53906,204.54809 C 375.21613,204.96477 375.84113,205.38144 376.41406,205.79809 C 377.19529,206.39706 377.638,206.86581 377.74219,207.20434 C 377.84634,207.56894 377.8854,207.94654 377.85938,208.33716 C 377.80727,208.6757 377.72915,208.858 377.625,208.88403 C 377.46873,208.91008 377.22134,208.6757 376.88281,208.18091 C 376.17967,207.34758 375.34634,206.57935 374.38281,205.87622 C 374.12238,205.6679 373.86196,205.47258 373.60156,205.29028 C 372.1953,206.38404 370.58072,207.45175 368.75781,208.49341 M 371.02344,200.60278 C 370.86718,200.55071 370.80207,200.44655 370.82812,200.29028 C 370.85416,200.13405 370.98436,200.09498 371.21875,200.17309 C 371.97395,200.30332 372.55988,200.45957 372.97656,200.64184 C 373.28905,200.79811 373.48436,200.92832 373.5625,201.03247 C 373.69269,201.39707 373.67967,201.70957 373.52344,201.96997 C 373.39322,202.25644 373.27603,202.41269 373.17188,202.43872 C 373.04165,202.46477 372.8854,202.34759 372.70312,202.08716 C 372.46874,201.74863 372.22134,201.46217 371.96094,201.22778 C 371.64843,200.96738 371.33593,200.75905 371.02344,200.60278 M 368.17188,204.39184 C 368.04166,204.31373 367.98957,204.19654 368.01562,204.04028 C 368.0677,203.91008 368.21093,203.88404 368.44531,203.96216 C 369.09634,204.14446 369.61718,204.32675 370.00781,204.50903 C 370.3203,204.69133 370.48957,204.83456 370.51562,204.93872 C 370.61978,205.30331 370.58072,205.61581 370.39844,205.87622 C 370.21614,206.13665 370.08593,206.27987 370.00781,206.30591 C 369.90364,206.30592 369.76041,206.17571 369.57812,205.91528 C 369.39582,205.57675 369.18749,205.29029 368.95312,205.05591 C 368.6927,204.76946 368.43228,204.5481 368.17188,204.39184 M 376.45312,203.92309 C 376.3229,203.81894 376.27082,203.71477 376.29688,203.61059 C 376.34894,203.45436 376.49217,203.42831 376.72656,203.53247 C 377.40363,203.71477 377.93748,203.93613 378.32812,204.19653 C 378.64061,204.37883 378.80988,204.52206 378.83594,204.62622 C 378.91404,204.99081 378.86196,205.30331 378.67969,205.56372 C 378.49738,205.82415 378.35415,205.96737 378.25,205.99341 C 378.17186,205.96737 378.04165,205.82415 377.85938,205.56372 C 377.67707,205.22519 377.46873,204.92571 377.23438,204.66528 C 376.97394,204.35279 376.71352,204.1054 376.45312,203.92309 M 372.54688,207.04809 C 372.41665,206.94394 372.36457,206.83977 372.39062,206.73559 C 372.4427,206.57935 372.58592,206.55331 372.82031,206.65747 C 373.47134,206.83977 373.96613,207.02206 374.30469,207.20434 C 374.59113,207.3606 374.74738,207.49081 374.77344,207.59497 C 374.85155,207.95956 374.79946,208.27206 374.61719,208.53247 C 374.43488,208.79289 374.29165,208.93612 374.1875,208.96216 C 374.10936,208.93612 373.97915,208.79289 373.79688,208.53247 C 373.61457,208.21998 373.43228,207.94654 373.25,207.71216 C 373.04165,207.42571 372.80728,207.20435 372.54688,207.04809 M 367.85938,219.58716 C 367.70312,219.58715 367.46874,219.58715 367.15625,219.58716 C 366.66145,219.58715 366.20572,219.37882 365.78906,218.96216 C 365.39843,218.57153 365.20312,217.82934 365.20312,216.73559 L 365.20312,214.70434 C 365.17708,213.32414 365.11197,212.30851 365.00781,211.65747 C 364.98177,211.52726 365.00781,211.4231 365.08594,211.34497 C 365.16406,211.26685 365.32031,211.26685 365.55469,211.34497 C 366.28385,211.70956 366.92187,212.0481 367.46875,212.36059 C 367.70312,212.51685 367.8203,212.63403 367.82031,212.71216 C 367.79426,212.84237 367.6901,212.99862 367.50781,213.18091 C 367.29947,213.3632 367.15624,213.70174 367.07812,214.19653 L 367.07812,215.56372 C 370.04686,214.60018 373.10676,213.28508 376.25781,211.61841 C 376.49217,211.4882 376.66144,211.47518 376.76562,211.57934 C 377.62498,212.28247 378.263,212.84237 378.67969,213.25903 C 378.78383,213.41528 378.8229,213.54549 378.79688,213.64966 C 378.74477,213.72778 378.58852,213.75382 378.32812,213.72778 C 377.98956,213.64966 377.53384,213.62362 376.96094,213.64966 C 376.51821,213.6757 375.58071,213.97518 374.14844,214.54809 C 372.01301,215.25122 369.65624,215.88924 367.07812,216.46216 C 367.07812,216.90486 367.16926,217.2434 367.35156,217.47778 C 367.53385,217.71215 367.78124,217.82934 368.09375,217.82934 C 368.35416,217.82934 368.53645,217.82934 368.64062,217.82934 L 377.3125,217.82934 C 377.75519,217.8033 378.06769,217.7382 378.25,217.63403 C 378.45831,217.50382 378.65363,217.23038 378.83594,216.81372 C 379.22654,216.00643 379.63019,214.66528 380.04688,212.79028 C 380.09894,212.50383 380.24217,212.37362 380.47656,212.39966 C 380.71092,212.45174 380.81508,212.60799 380.78906,212.86841 C 380.65883,214.45695 380.68487,215.6158 380.86719,216.34497 C 380.97133,216.78768 381.15362,217.06111 381.41406,217.16528 C 381.51821,217.21736 381.53123,217.29549 381.45312,217.39966 C 381.19269,218.12882 380.85415,218.64965 380.4375,218.96216 C 379.8906,219.37882 379.21352,219.58715 378.40625,219.58716 L 367.85938,219.58716 M 388.67969,200.83716 C 388.83591,200.62884 389.00518,200.61582 389.1875,200.79809 C 389.91664,201.52727 390.52861,202.17832 391.02344,202.75122 C 391.25778,203.03769 391.32288,203.233 391.21875,203.33716 C 391.11455,203.41529 391.01039,203.44134 390.90625,203.41528 C 390.35934,203.31113 389.92966,203.31113 389.61719,203.41528 C 389.53903,203.46738 389.34372,203.58456 389.03125,203.76684 C 387.91143,204.60019 386.98695,205.21217 386.25781,205.60278 C 385.47654,206.0455 384.53904,206.39706 383.44531,206.65747 C 382.97654,206.76164 382.72914,206.68352 382.70312,206.42309 C 382.62498,206.1106 382.75518,205.90227 383.09375,205.79809 C 384.36977,205.12102 385.47654,204.37883 386.41406,203.57153 C 387.22133,202.79029 387.97653,201.87884 388.67969,200.83716 M 391.29688,204.78247 C 391.45309,204.57415 391.62236,204.56113 391.80469,204.74341 C 392.5859,205.44654 393.22392,206.07154 393.71875,206.61841 C 393.95309,206.87883 394.01819,207.06112 393.91406,207.16528 C 393.80986,207.26946 393.70569,207.30852 393.60156,207.28247 C 393.05465,207.20435 392.62497,207.21737 392.3125,207.32153 C 392.2083,207.37362 391.92184,207.59498 391.45312,207.98559 C 389.78643,209.39185 388.36716,210.44654 387.19531,211.14966 C 385.99737,211.85279 384.53904,212.47778 382.82031,213.02466 C 382.40362,213.15487 382.15623,213.08976 382.07812,212.82934 C 381.97394,212.49081 382.09112,212.26945 382.42969,212.16528 C 384.46091,211.22779 386.19268,210.13404 387.625,208.88403 C 388.9531,207.79029 390.17705,206.4231 391.29688,204.78247 M 393.95312,209.15747 C 394.10934,208.94914 394.27861,208.93612 394.46094,209.11841 C 395.24215,209.82154 395.88017,210.44654 396.375,210.99341 C 396.60934,211.25383 396.67444,211.43612 396.57031,211.54028 C 396.46611,211.64445 396.36194,211.68351 396.25781,211.65747 C 395.7109,211.57935 395.28121,211.59237 394.96875,211.69653 C 394.81246,211.77466 394.40882,212.08716 393.75781,212.63403 C 391.41403,214.63924 389.44789,216.12361 387.85938,217.08716 C 386.1406,218.07674 384.09633,218.96215 381.72656,219.74341 C 381.30987,219.87361 381.06248,219.80851 380.98438,219.54809 C 380.88019,219.20955 380.99737,218.98819 381.33594,218.88403 C 384.17445,217.68611 386.62237,216.26684 388.67969,214.62622 C 390.55466,213.19393 392.31247,211.37101 393.95312,209.15747 M 375.82812,196.34497 C 375.67186,196.52728 375.51561,196.74863 375.35938,197.00903 C 375.20311,197.19134 375.0729,197.20436 374.96875,197.04809 C 374.57811,196.68353 374.09634,196.34499 373.52344,196.03247 C 373.39322,195.98041 373.32811,195.9153 373.32812,195.83716 C 373.35415,195.73301 373.45832,195.62884 373.64062,195.52466 C 373.74478,195.39447 373.83592,195.23822 373.91406,195.05591 C 373.91405,193.85801 373.86196,192.94655 373.75781,192.32153 C 373.73176,192.19135 373.7578,192.08718 373.83594,192.00903 C 373.91405,191.95697 374.04426,191.96999 374.22656,192.04809 C 374.85155,192.36062 375.39842,192.64708 375.86719,192.90747 C 376.0755,193.0377 376.17967,193.14187 376.17969,193.21997 C 376.15363,193.32416 376.04946,193.49343 375.86719,193.72778 C 375.68488,193.83197 375.58071,194.07937 375.55469,194.46997 L 375.55469,195.29028 C 375.52863,195.2903 375.52863,195.30332 375.55469,195.32934 L 375.55469,195.44653 L 378.25,195.44653 L 378.25,191.03247 L 376.45312,191.03247 C 375.6979,191.03249 374.85155,191.14968 373.91406,191.38403 C 373.80988,191.4101 373.74478,191.38406 373.71875,191.30591 C 373.43228,190.83718 373.15884,190.40749 372.89844,190.01684 C 372.76822,189.78249 372.85936,189.70437 373.17188,189.78247 C 374.83853,190.01687 375.78905,190.13406 376.02344,190.13403 L 378.25,190.13403 L 378.25,186.81372 L 376.25781,186.81372 C 375.71092,187.64708 375.24217,188.31114 374.85156,188.80591 C 374.66926,189.04031 374.48696,189.07937 374.30469,188.92309 C 374.12238,188.76687 374.10936,188.5976 374.26562,188.41528 C 374.89061,187.16531 375.4505,185.51167 375.94531,183.45434 C 376.02342,183.19396 376.10155,183.05073 376.17969,183.02466 C 376.2578,182.99865 376.388,183.03771 376.57031,183.14184 C 377.16925,183.45438 377.70311,183.76688 378.17188,184.07934 C 378.24998,184.13146 378.27602,184.19656 378.25,184.27466 C 378.22394,184.4049 378.15884,184.48302 378.05469,184.50903 C 377.71613,184.66531 377.42967,184.95177 377.19531,185.36841 C 377.06509,185.55073 376.9479,185.73302 376.84375,185.91528 L 380.32031,185.91528 C 380.52862,185.88927 380.71092,185.86323 380.86719,185.83716 L 382.15625,184.35278 C 382.26039,184.2226 382.35154,184.1575 382.42969,184.15747 C 382.53383,184.1575 382.62498,184.20958 382.70312,184.31372 C 383.35414,184.99083 383.888,185.61583 384.30469,186.18872 C 384.43487,186.345 384.48695,186.47521 384.46094,186.57934 C 384.43487,186.70958 384.2656,186.78771 383.95312,186.81372 L 380.00781,186.81372 L 380.00781,190.13403 L 381.21875,190.13403 C 381.53123,190.13406 381.73956,190.08197 381.84375,189.97778 L 383.09375,188.37622 C 383.19789,188.27208 383.30206,188.27208 383.40625,188.37622 C 384.10935,189.07937 384.66925,189.75645 385.08594,190.40747 C 385.19008,190.58979 385.22914,190.73301 385.20312,190.83716 C 385.15102,190.94135 385.03383,191.00645 384.85156,191.03247 L 380.00781,191.03247 L 380.00781,195.44653 L 382.23438,195.44653 C 382.20831,194.11843 382.14321,193.12885 382.03906,192.47778 C 382.013,192.3476 382.03904,192.24343 382.11719,192.16528 C 382.19529,192.11322 382.3255,192.12624 382.50781,192.20434 C 383.13279,192.51687 383.67966,192.80333 384.14844,193.06372 C 384.35675,193.19395 384.46091,193.29812 384.46094,193.37622 C 384.43487,193.48041 384.3307,193.64968 384.14844,193.88403 C 383.96612,193.98822 383.86195,194.23562 383.83594,194.62622 L 383.83594,195.44653 C 383.80987,195.44655 383.80987,195.45957 383.83594,195.48559 L 383.83594,196.03247 C 383.83591,196.55332 383.75779,196.8528 383.60156,196.93091 C 383.34112,197.03509 383.04164,197.17832 382.70312,197.36059 C 382.3906,197.46478 382.23435,197.38665 382.23438,197.12622 L 382.23438,196.34497 L 375.82812,196.34497 M 379.65625,209.19653 L 379.65625,205.32934 C 379.63019,203.94915 379.56508,202.93352 379.46094,202.28247 C 379.43488,202.17832 379.46092,202.08717 379.53906,202.00903 C 379.64321,201.93092 379.78644,201.93092 379.96875,202.00903 C 380.64581,202.37363 381.23175,202.68613 381.72656,202.94653 C 381.96091,203.10279 382.0781,203.21998 382.07812,203.29809 C 382.05206,203.42831 381.94789,203.58456 381.76562,203.76684 C 381.53123,204.00123 381.41404,204.52206 381.41406,205.32934 L 381.41406,210.40747 C 381.41404,210.95435 381.32289,211.26685 381.14062,211.34497 C 380.88019,211.47518 380.55467,211.61841 380.16406,211.77466 C 379.8255,211.90487 379.65623,211.81372 379.65625,211.50122 L 379.65625,210.40747 L 367.35156,210.40747 C 367.16926,210.64185 366.98697,210.88924 366.80469,211.14966 C 366.64843,211.35799 366.51822,211.37101 366.41406,211.18872 C 366.02343,210.7981 365.5026,210.43352 364.85156,210.09497 C 364.69531,210.04289 364.61718,209.96477 364.61719,209.86059 C 364.64322,209.75643 364.74739,209.65227 364.92969,209.54809 C 365.16406,209.36581 365.28124,209.18352 365.28125,209.00122 L 365.28125,205.48559 C 365.2552,204.1054 365.1901,203.08977 365.08594,202.43872 C 365.05989,202.33457 365.08593,202.24342 365.16406,202.16528 C 365.26822,202.08717 365.41145,202.08717 365.59375,202.16528 C 366.27083,202.52988 366.85676,202.84238 367.35156,203.10278 C 367.58593,203.25904 367.70312,203.37623 367.70312,203.45434 C 367.67708,203.58456 367.57291,203.74081 367.39062,203.92309 C 367.15624,204.15748 367.03905,204.67831 367.03906,205.48559 L 367.03906,209.19653 L 379.65625,209.19653"
       id="flowRoot2395" />
  </g>
</svg>
